:SAMPLES-PER-SECOND 30
:FULLY-SPECIFIED
:DEGREES
479
root  -15.8091 40.1953 -13.5067 -175.545 -85.3271 168.833
RightUpLeg  -2.99957 -19.0289 -7.22695
RightLeg  19.9258 -5.43995 0.696742
RightFoot  -7.47208 -0.0140103 -1.09254
RightToes  0.000482159 0.542163 -0.142577
Spine  19.7971 1.5756 16.5674
Spine1  11.2069 8.97235 -14.7761
HEad  27.0473 48.4076 -9.25653
LeftShoulder1  6.15675 -9.33661 -41.5776
LeftArm  -18.303 31.0399 -33.8065
LeftForeArm  22.0905 -25.7511 -4.34286
LeftHand  -0.25398 0.0180481 5.50724
RightShoulder  5.82387 10.2263 36.4244
RightArm  8.19729 -17.3399 34.0506
RightForeArm  -10.2252 27.7541 6.51487
RightHand  -1.81024 4.41534 -21.5406
LeftUpLeg  -17.6479 11.5227 -0.726361
LeftLeg  33.2862 8.63033 6.3868
LeftFoot  -2.41826 0.253271 -3.10055
LeftToes  1.06245e-005 4.65856e-005 -8.18503e-006
480
root  -14.7552 40.2533 -12.8912 -167.434 -85.7885 161.194
RightUpLeg  -4.54422 -17.5228 -8.2107
RightLeg  18.3899 -7.32105 1.13692
RightFoot  -5.39456 -0.0245946 -0.225895
RightToes  0.000482159 0.542163 -0.142577
Spine  18.8895 1.52006 15.7886
Spine1  11.3176 8.75219 -14.6135
HEad  26.7439 48.3111 -9.48768
LeftShoulder1  6.14001 -9.34029 -41.4428
LeftArm  -19.1918 30.0541 -32.9491
LeftForeArm  22.2899 -28.1475 -4.86692
LeftHand  -0.25398 0.0180481 5.50724
RightShoulder  5.84332 10.2404 36.5196
RightArm  8.48227 -18.3081 34.5512
RightForeArm  -10.2826 27.8161 6.53269
RightHand  -1.79304 4.27879 -21.6281
LeftUpLeg  -15.2394 9.08015 1.82136
LeftLeg  38.3457 9.12878 8.00574
LeftFoot  -3.50023 0.206499 -2.73446
LeftToes  1.06245e-005 4.65856e-005 -8.18503e-006
481
root  -13.7036 40.1896 -12.2367 -164.022 -86.1864 158.244
RightUpLeg  -6.58858 -17.247 -8.66079
RightLeg  17.7626 -7.84855 1.15965
RightFoot  -3.79498 -0.071586 0.693516
RightToes  0.000482159 0.542163 -0.142577
Spine  18.0159 1.34225 15.2843
Spine1  11.4041 8.4215 -14.3808
HEad  26.5491 48.4822 -9.59067
LeftShoulder1  6.1111 -9.27691 -41.4523
LeftArm  -19.8641 29.1204 -31.6485
LeftForeArm  22.7802 -29.9861 -5.26403
LeftHand  -0.25398 0.0180481 5.50724
RightShoulder  5.87474 10.2494 36.715
RightArm  8.15236 -19.3749 34.897
RightForeArm  -11.426 27.7393 6.56979
RightHand  -1.76663 4.08441 -21.7359
LeftUpLeg  -12.1463 6.62783 4.73829
LeftLeg  41.5664 8.27516 8.15915
LeftFoot  -4.3885 0.24461 -3.57499
LeftToes  1.06245e-005 4.65856e-005 -8.18503e-006
482
root  -12.6341 40.0111 -11.5274 -165.706 -86.6383 160.414
RightUpLeg  -9.19609 -18.0542 -8.56211
RightLeg  18.0567 -7.34735 0.75515
RightFoot  -2.45773 -0.153665 1.76131
RightToes  0.000482159 0.542163 -0.142577
Spine  17.2251 1.04392 15.0061
Spine1  11.3583 7.93472 -14.0689
HEad  26.5748 48.6614 -9.4998
LeftShoulder1  6.03338 -9.1218 -41.424
LeftArm  -20.6687 28.3403 -30.3734
LeftForeArm  23.3462 -31.1808 -5.51698
LeftHand  -0.25398 0.0180481 5.50724
RightShoulder  5.85731 10.1869 36.7807
RightArm  7.85113 -20.353 35.2053
RightForeArm  -12.413 27.4372 6.54403
RightHand  -1.65783 3.62322 -21.434
LeftUpLeg  -8.61138 4.35131 7.50673
LeftLeg  42.8591 7.58057 7.85613
LeftFoot  -5.24695 0.153903 -2.30246
LeftToes  1.06245e-005 4.65856e-005 -8.18503e-006
483
root  -11.5483 39.7703 -10.7693 -171.405 -86.9569 166.485
RightUpLeg  -11.8491 -19.1397 -8.2032
RightLeg  18.4737 -6.54293 0.161813
RightFoot  -1.19255 -0.246732 2.68981
RightToes  0.000482159 0.542163 -0.142577
Spine  16.5445 0.749822 14.6781
Spine1  11.3719 7.38837 -13.62
HEad  26.4657 48.7583 -9.63899
LeftShoulder1  5.93876 -8.9626 -41.2831
LeftArm  -21.6561 27.9008 -29.3852
LeftForeArm  23.6755 -31.9648 -5.68915
LeftHand  -0.25398 0.0180481 5.50724
RightShoulder  5.7992 10.0938 36.6501
RightArm  7.91217 -21.2531 35.4132
RightForeArm  -12.9206 27.1014 6.48713
RightHand  -1.55513 3.25628 -20.9681
LeftUpLeg  -4.37649 2.88783 9.95346
LeftLeg  41.8513 7.5711 7.58356
LeftFoot  -4.9557 0.0180442 0.216411
LeftToes  1.06245e-005 4.65856e-005 -8.18503e-006
484
root  -10.4744 39.5196 -9.96487 -179.041 -87.0461 174.409
RightUpLeg  -14.1429 -19.5124 -7.94984
RightLeg  18.1876 -6.18315 -0.27035
RightFoot  0.410356 -0.315427 3.09651
RightToes  0.000482159 0.542163 -0.142577
Spine  15.8494 0.538714 14.2159
Spine1  11.4603 6.84076 -13.0931
HEad  26.345 48.8129 -9.94911
LeftShoulder1  5.83881 -8.82045 -41.0364
LeftArm  -22.4568 27.8951 -28.6844
LeftForeArm  23.6519 -32.564 -5.83851
LeftHand  -0.25398 0.0180481 5.50724
RightShoulder  5.72356 10.0022 36.3866
RightArm  8.37451 -22.1816 35.4736
RightForeArm  -13.2988 26.7767 6.42716
RightHand  -1.5655 3.34867 -20.8884
LeftUpLeg  0.728977 2.30145 12.1976
LeftLeg  37.9148 7.2386 6.39226
LeftFoot  -4.0312 0.133659 -1.59179
LeftToes  1.06245e-005 4.65856e-005 -8.18503e-006
485
root  -9.40322 39.2686 -9.08089 175.499 -87.2501 -179.648
RightUpLeg  -16.2488 -19.5067 -8.12599
RightLeg  17.1655 -6.28355 -0.38857
RightFoot  2.70315 -0.401259 3.39639
RightToes  0.000482159 0.542163 -0.142577
Spine  15.0391 0.313048 13.7075
Spine1  11.4091 6.19657 -12.6778
HEad  26.3914 48.7355 -10.2097
LeftShoulder1  5.72108 -8.62931 -40.8242
LeftArm  -22.7786 28.011 -28.1355
LeftForeArm  23.4933 -32.9976 -5.95607
LeftHand  -0.25398 0.0180481 5.50724
RightShoulder  5.63174 9.88003 36.095
RightArm  8.63064 -23.2043 35.3875
RightForeArm  -13.3493 26.4855 6.36005
RightHand  -1.58985 3.44138 -20.9908
LeftUpLeg  5.73323 2.00514 13.6793
LeftLeg  31.4484 6.03747 4.32929
LeftFoot  -5.43204 0.491214 -9.54625
LeftToes  1.06245e-005 4.65856e-005 -8.18503e-006
486
root  -8.25845 39.0166 -8.09737 -179.112 -87.9199 175.778
RightUpLeg  -18.3682 -19.8357 -9.02832
RightLeg  15.7204 -6.79333 -0.289721
RightFoot  4.93268 -0.561471 4.16043
RightToes  0.000482159 0.542163 -0.142577
Spine  14.3718 0.0370163 12.9335
Spine1  11.184 5.43883 -12.3181
HEad  25.9426 48.174 -10.835
LeftShoulder1  5.63542 -8.44609 -40.8277
LeftArm  -22.9347 27.7096 -27.7498
LeftForeArm  23.6079 -33.3459 -6.03744
LeftHand  -0.25398 0.0180481 5.50724
RightShoulder  5.56846 9.76657 35.9813
RightArm  7.80978 -24.2281 35.0152
RightForeArm  -12.846 26.4226 6.32137
RightHand  -1.50413 3.06144 -20.7446
LeftUpLeg  8.85151 2.06381 13.4859
LeftLeg  24.5209 4.3872 2.5167
LeftFoot  -10.53 0.193011 -17.3629
LeftToes  1.06245e-005 4.65856e-005 -8.18503e-006
487
root  -6.99936 38.8514 -7.09513 -147.362 -88.3974 144.969
RightUpLeg  -19.8894 -19.3505 -11.0849
RightLeg  13.1753 -8.24372 0.14152
RightFoot  5.58408 -0.691939 4.90874
RightToes  0.000482159 0.542163 -0.142577
Spine  14.2432 0.0156484 11.1827
Spine1  11.0035 4.83388 -11.7149
HEad  24.3699 46.7168 -12.1513
LeftShoulder1  5.6862 -8.48292 -41.0883
LeftArm  -23.2503 26.7796 -27.548
LeftForeArm  24.0819 -33.7754 -6.11926
LeftHand  -0.25398 0.0180481 5.50724
RightShoulder  5.61194 9.78312 36.2486
RightArm  5.99076 -24.9236 34.4096
RightForeArm  -12.7532 26.3407 6.29653
RightHand  -1.45588 2.84429 -20.6038
LeftUpLeg  9.11508 3.7302 11.6197
LeftLeg  19.6117 2.51576 1.32102
LeftFoot  -16.29 -0.663881 -18.0807
LeftToes  1.06245e-005 4.65856e-005 -8.18503e-006
488
root  -5.68702 38.8274 -6.18491 -112.025 -87.4286 110.503
RightUpLeg  -20.4736 -16.877 -13.9357
RightLeg  8.95987 -9.79003 0.982214
RightFoot  4.20884 -0.688978 5.2571
RightToes  0.000482159 0.542163 -0.142577
Spine  14.6067 0.518944 8.51224
Spine1  10.9013 4.7488 -11.0135
HEad  22.5637 44.347 -13.3221
LeftShoulder1  5.88738 -8.79747 -41.4875
LeftArm  -23.2855 25.5202 -27.1464
LeftForeArm  24.5104 -34.144 -6.1887
LeftHand  -0.25398 0.0180481 5.50724
RightShoulder  5.75106 9.92711 36.8161
RightArm  4.36229 -24.9448 34.2656
RightForeArm  -13.7768 25.2463 6.07536
RightHand  -1.60294 3.41374 -21.2191
LeftUpLeg  7.1619 7.31593 9.00052
LeftLeg  17.8668 0.694314 0.54581
LeftFoot  -19.3132 -0.851056 -13.7136
LeftToes  1.06245e-005 4.65856e-005 -8.18503e-006
489
root  -4.45249 38.8954 -5.39634 -113.199 -85.9918 112.425
RightUpLeg  -20.8989 -14.6184 -15.5726
RightLeg  4.57305 -8.52646 1.49846
RightFoot  2.24147 -0.706314 6.05944
RightToes  0.000482159 0.542163 -0.142577
Spine  14.955 1.24385 6.51393
Spine1  10.641 5.28245 -11.0975
HEad  22.0406 41.6751 -13.3403
LeftShoulder1  6.10529 -9.13892 -41.8945
LeftArm  -22.6557 24.4383 -26.0826
LeftForeArm  24.5792 -34.0589 -6.16294
LeftHand  -0.25398 0.0180481 5.50724
RightShoulder  5.875 10.0401 37.3573
RightArm  3.52337 -24.3555 35.2226
RightForeArm  -13.776 22.7065 5.71247
RightHand  -1.66463 3.64535 -21.4869
LeftUpLeg  4.29665 10.3158 6.47788
LeftLeg  18.5104 -0.167801 0.1415
LeftFoot  -19.6225 -0.663794 -10.7361
LeftToes  1.06245e-005 4.65856e-005 -8.18503e-006
490
root  -3.39628 39.0782 -4.69127 -125.219 -85.0474 124.931
RightUpLeg  -21.4928 -13.6941 -15.1484
RightLeg  2.70645 -5.58233 1.54764
RightFoot  1.28407 -0.803445 7.32445
RightToes  0.000482159 0.542163 -0.142577
Spine  15.0366 1.71751 6.46047
Spine1  10.2135 6.13905 -12.444
HEad  22.8231 39.479 -12.5667
LeftShoulder1  6.18714 -9.21779 -42.2155
LeftArm  -22.1599 23.9476 -24.6966
LeftForeArm  24.447 -33.4527 -6.01594
LeftHand  -0.25398 0.0180481 5.50724
RightShoulder  5.92294 10.0705 37.6045
RightArm  2.6068 -23.7195 36.8818
RightForeArm  -9.64277 20.04 5.8528
RightHand  -1.26138 2.06679 -19.5815
LeftUpLeg  1.90125 11.1583 4.58514
LeftLeg  19.1988 0.462604 0.375043
LeftFoot  -18.6341 -0.563963 -10.586
LeftToes  1.06245e-005 4.65856e-005 -8.18503e-006
491
root  -2.5064 39.3539 -4.03637 -142.109 -84.4942 141.864
RightUpLeg  -22.1723 -13.1969 -13.3011
RightLeg  5.23139 -4.02272 1.57733
RightFoot  0.981583 -0.833707 7.77025
RightToes  0.000482159 0.542163 -0.142577
Spine  15.0454 1.86419 7.79045
Spine1  9.93361 6.84995 -13.9391
HEad  23.4573 38.0727 -12.0684
LeftShoulder1  6.09018 -8.99394 -42.3
LeftArm  -22.8876 24.2874 -24.0418
LeftForeArm  24.2351 -32.6357 -5.82282
LeftHand  -0.25398 0.0180481 5.50724
RightShoulder  5.9371 10.1334 37.5104
RightArm  3.45553 -23.6262 38.2997
RightForeArm  -4.77059 19.4451 5.82413
RightHand  -0.677888 -0.481333 -15.9603
LeftUpLeg  0.623519 10.7384 3.64432
LeftLeg  18.8501 2.4087 1.00076
LeftFoot  -17.4255 -0.431033 -10.0178
LeftToes  1.06245e-005 4.65856e-005 -8.18503e-006
